<svg width="28" height="28" viewBox="0 0 28 28" fill="none" xmlns="http://www.w3.org/2000/svg">
<g clip-path="url(#clip0_10143_56130)">
<path d="M25.4226 21.8205C24.9992 22.7987 24.498 23.6992 23.9173 24.5271C23.1257 25.6557 22.4776 26.4369 21.9781 26.8707C21.2038 27.5828 20.3742 27.9475 19.4858 27.9682C18.848 27.9682 18.0789 27.7867 17.1837 27.4186C16.2854 27.0522 15.46 26.8707 14.7052 26.8707C13.9136 26.8707 13.0647 27.0522 12.1566 27.4186C11.2472 27.7867 10.5145 27.9786 9.95435 27.9976C9.10246 28.0339 8.25332 27.6588 7.40574 26.8707C6.86478 26.3989 6.18813 25.59 5.37754 24.4441C4.50784 23.2205 3.79282 21.8015 3.23267 20.1838C2.63276 18.4364 2.33203 16.7444 2.33203 15.1062C2.33203 13.2298 2.7375 11.6114 3.54965 10.2551C4.18792 9.16575 5.03706 8.30642 6.09981 7.67557C7.16257 7.04473 8.31088 6.72326 9.5475 6.70269C10.2241 6.70269 11.1115 6.91199 12.2142 7.32334C13.3137 7.73607 14.0198 7.94537 14.3293 7.94537C14.5607 7.94537 15.345 7.70063 16.6747 7.21272C17.932 6.76024 18.9932 6.57289 19.8626 6.64669C22.2183 6.83681 23.9881 7.76545 25.1651 9.43848C23.0583 10.715 22.0161 12.503 22.0368 14.7967C22.0558 16.5833 22.704 18.07 23.9778 19.2505C24.555 19.7983 25.1997 20.2218 25.917 20.5225C25.7614 20.9736 25.5972 21.4057 25.4226 21.8205ZM20.0199 0.56016C20.0199 1.96048 19.5083 3.26795 18.4886 4.47814C17.258 5.91681 15.7695 6.74815 14.1554 6.61696C14.1349 6.44897 14.1229 6.27216 14.1229 6.08636C14.1229 4.74206 14.7082 3.30339 15.7474 2.12707C16.2663 1.53149 16.9261 1.03627 17.7264 0.641218C18.5248 0.252064 19.2801 0.0368539 19.9905 0C20.0112 0.187201 20.0199 0.374414 20.0199 0.560141V0.56016Z" fill="black"/>
</g>
<defs>
<clipPath id="clip0_10143_56130">
<rect width="28" height="28" fill="white"/>
</clipPath>
</defs>
</svg>
