<svg width="28" height="28" viewBox="0 0 28 28" fill="none" xmlns="http://www.w3.org/2000/svg">
<g clip-path="url(#clip0_10143_56128)">
<path d="M14 11.4531V16.875H21.5345C21.2037 18.6186 20.2108 20.095 18.7218 21.0877L23.2654 24.6132C25.9126 22.1696 27.4399 18.5805 27.4399 14.3169C27.4399 13.3242 27.3509 12.3696 27.1854 11.4533L14 11.4531Z" fill="#4285F4"/>
<path d="M6.15209 16.6641L5.12733 17.4485L1.5 20.2739C3.80363 24.843 8.5251 27.9994 13.9978 27.9994C17.7777 27.9994 20.9467 26.7521 23.2632 24.614L18.7195 21.0885C17.4723 21.9285 15.8813 22.4376 13.9978 22.4376C10.3578 22.4376 7.26517 19.9813 6.15781 16.6721L6.15209 16.6641Z" fill="#34A853"/>
<path d="M1.50171 7.72656C0.547216 9.61012 0 11.7356 0 14.001C0 16.2664 0.547216 18.3919 1.50171 20.2755C1.50171 20.2881 6.15997 16.6609 6.15997 16.6609C5.87997 15.8209 5.71447 14.9301 5.71447 14.0009C5.71447 13.0717 5.87997 12.1808 6.15997 11.3408L1.50171 7.72656Z" fill="#FBBC05"/>
<path d="M13.9981 5.57454C16.0599 5.57454 17.8926 6.28725 19.3562 7.66181L23.3653 3.65277C20.9344 1.38736 17.7781 0 13.9981 0C8.52539 0 3.80363 3.14363 1.5 7.72546L6.15812 11.34C7.26532 8.03089 10.3581 5.57454 13.9981 5.57454Z" fill="#EA4335"/>
</g>
<defs>
<clipPath id="clip0_10143_56128">
<rect width="28" height="28" fill="white"/>
</clipPath>
</defs>
</svg>
